Coordinates
version=1
nRows=12
nColumns=42
inDegrees=yes

Units are S.I. units (second, meters, Newtons, ...)
If the header above contains a line with 'inDegrees', this indicates whether rotational values are in degrees (yes) or radians (no).

endheader
time	pelvis_tilt	pelvis_list	pelvis_rotation	pelvis_tx	pelvis_ty	pelvis_tz	hip_flexion_r	hip_adduction_r	hip_rotation_r	knee_angle_r	knee_adduction_r	knee_angle_r_beta	ankle_angle_r	subtalar_angle_r	mtp_angle_r	hip_flexion_l	hip_adduction_l	hip_rotation_l	knee_angle_l	knee_adduction_l	knee_angle_l_beta	ankle_angle_l	subtalar_angle_l	mtp_angle_l	lumbar_extension	lumbar_bending	lumbar_rotation	arm_flex_r	arm_add_r	arm_rot_r	elbow_flex_r	pro_sup_r	wrist_flex_r	wrist_dev_r	arm_flex_l	arm_add_l	arm_rot_l	elbow_flex_l	pro_sup_l	wrist_flex_l	wrist_dev_l
      0.92000000	     10.34741433	      0.30547790	      8.93440111	     -0.62523418	      0.87480950	      0.16247343	      8.62903745	      0.70330599	     -8.41163594	     61.36409809	     -3.81680970	      1.07100555	     18.83334325	    -16.66066258	     -7.87708465	      5.46143695	      6.13743915	    -10.12169250	     30.64904398	     -8.89054085	      0.53492673	     24.31637185	      4.08059627	     -7.87708465	    -40.58328888	      3.55351222	     -5.22302753	     14.54612150	     -6.50438459	     -1.10110218	     37.70735483	     90.00000001	      0.00000000	      0.00000000	     19.45230029	    -10.27749955	    -12.30983787	     30.92589969	     90.00000001	      0.00000000	      0.00000000
      0.93000000	     10.28685375	      0.16536198	      9.06827647	     -0.61725859	      0.87505061	      0.16184481	      9.79443890	      0.74905118	     -8.09647675	     59.73902646	     -3.56939312	      1.04264270	     19.14631161	    -16.48428384	     -7.86793462	      4.91324320	      5.95150633	     -9.92305132	     30.65771014	     -8.86200792	      0.53507798	     25.01770081	      4.09954370	     -7.86793462	    -40.61112937	      3.86151155	     -5.34162516	     14.35175293	     -6.35027947	     -1.28921609	     36.66625575	     90.00000001	      0.00000000	      0.00000000	     20.00389211	    -10.53866390	    -11.37366836	     31.53673405	     90.00000001	      0.00000000	      0.00000000
      0.94000000	     10.29719124	      0.02063370	      9.18723600	     -0.60926937	      0.87538957	      0.16145739	     10.74773215	      0.88082827	     -7.64028124	     57.74151765	     -3.27398714	      1.00777960	     19.13733012	    -16.23769663	     -7.85542374	      4.29008304	      5.74300607	     -9.73558571	     30.65018596	     -8.88246566	      0.53494666	     25.55943209	      4.19901142	     -7.85542374	    -40.74411121	      4.14230348	     -5.38011407	     14.09576422	     -6.18219329	     -1.70988898	     35.83930360	     90.00000001	      0.00000000	      0.00000000	     20.48941077	    -10.89006517	    -10.12471935	     32.35404381	     90.00000001	      0.00000000	      0.00000000
      0.95000000	     10.08841767	     -0.02956846	      9.27483930	     -0.60131791	      0.87504057	      0.16086195	     11.96360220	      0.78044604	     -7.34370854	     55.75271591	     -3.05288867	      0.97306846	     19.18301965	    -15.87128145	     -7.84776000	      3.94385029	      5.80764348	     -9.68407190	     30.65296366	     -9.17352627	      0.53499514	     26.05570888	      4.15799654	     -7.84776000	    -40.62451162	      4.32206622	     -5.47956559	     13.70191253	     -6.11164599	     -1.90248973	     35.24992357	     90.00000001	      0.00000000	      0.00000000	     21.03388665	    -11.07528243	     -9.53707546	     32.94612268	     90.00000001	      0.00000000	      0.00000000
      0.96000000	     10.21653660	     -0.16955981	      9.33909020	     -0.59298317	      0.87539103	      0.16070445	     12.47574515	      0.96372024	     -6.76996250	     53.08181286	     -2.61643988	      0.92645241	     18.79022416	    -15.90334373	     -7.82999403	      3.12438271	      5.48636019	     -9.59776283	     30.59186146	     -9.05988424	      0.53392871	     26.61818553	      4.40244646	     -7.82999403	    -40.82960751	      4.56999490	     -5.45733689	     13.39154375	     -5.91680896	     -2.64341883	     34.51981804	     90.00000001	      0.00000000	      0.00000000	     21.45220265	    -11.45141489	     -8.12486298	     33.87289942	     90.00000001	      0.00000000	      0.00000000
      0.97000000	      9.76186476	      0.05518054	      9.25254532	     -0.58511765	      0.87423113	      0.16050970	     14.01248362	      0.38123945	     -6.78216943	     51.13152477	     -2.47461239	      0.89241346	     18.64529225	    -15.17447411	     -7.82539693	      3.04951964	      5.78423849	     -9.72007501	     30.66446880	     -9.09679212	      0.53519594	     26.78126012	      4.40559816	     -7.82539693	    -40.47919213	      4.31844900	     -5.55725685	     12.81489581	     -5.87733875	     -2.66527798	     34.29391496	     90.00000001	      0.00000000	      0.00000000	     22.07095485	    -11.54708070	     -7.98531018	     34.40895817	     90.00000001	      0.00000000	      0.00000000
      0.98000000	     10.07739938	     -0.32374820	      9.43580762	     -0.57655264	      0.87479706	      0.16028303	     13.82744270	      0.99576566	     -5.98492047	     47.38816909	     -1.90766613	      0.82707958	     18.18657339	    -15.68780228	     -7.80967107	      2.06229310	      5.23891313	     -9.62723078	     30.63257760	     -9.28103203	      0.53463934	     27.80394896	      4.67301245	     -7.80967107	    -40.82812422	      4.90670672	     -5.53883469	     12.72078525	     -5.69843685	     -3.61459575	     33.29279985	     90.00000001	      0.00000000	      0.00000000	     22.33505087	    -11.96692736	     -6.64519074	     35.33819073	     90.00000001	      0.00000000	      0.00000000
      0.99000000	      9.74708690	     -0.25736864	      9.49759228	     -0.56846030	      0.87368233	      0.15997460	     14.78773529	      0.70866572	     -5.87006496	     44.55614538	     -1.65365204	      0.77765144	     18.12166955	    -15.30163048	     -7.80241170	      1.88626624	      5.40505704	     -9.73350364	     30.75478424	     -9.58355461	      0.53677225	     28.37517448	      4.66841773	     -7.80241170	    -40.53890144	      4.91823112	     -5.71439799	     12.27908894	     -5.60217812	     -3.86180906	     32.78617323	     90.00000001	      0.00000000	      0.00000000	     22.76192037	    -12.16442964	     -6.27184892	     35.94331330	     90.00000001	      0.00000000	      0.00000000
      1.00000000	      9.57965473	     -0.28040331	      9.55032263	     -0.56014210	      0.87291561	      0.15989593	     15.29588362	      0.64414643	     -5.76792536	     41.19745147	     -1.43822555	      0.71903117	     17.85911726	    -15.10119903	     -7.79494076	      1.48086702	      5.34575596	     -9.87184888	     30.82390244	     -9.76287466	      0.53797859	     29.01088848	      4.82104773	     -7.79494076	    -40.40839072	      5.00911083	     -5.81261378	     11.91152541	     -5.51222836	     -4.32051547	     32.26444157	     90.00000001	      0.00000000	      0.00000000	     23.10778162	    -12.39152342	     -5.74135321	     36.70167368	     90.00000001	      0.00000000	      0.00000000
      1.01000000	      9.56951963	     -0.34348965	      9.61599803	     -0.55172757	      0.87243480	      0.15996529	     15.43523973	      0.70908420	     -5.73426126	     37.51893537	     -1.31060835	      0.65482895	     17.44673390	    -14.99585570	     -7.78645502	      0.86119343	      5.09821068	    -10.12608023	     30.82224968	     -9.80027752	      0.53794974	     29.66050453	      5.24712276	     -7.78645502	    -40.45504736	      5.15198773	     -5.83239703	     11.57866677	     -5.38987210	     -4.97903248	     31.82194720	     90.00000001	      0.00000000	      0.00000000	     23.45086979	    -12.64587679	     -5.12838911	     37.57378001	     90.00000001	      0.00000000	      0.00000000
      1.02000000	      9.51737826	     -0.37116073	      9.60499243	     -0.54318856	      0.87175895	      0.16017338	     15.54898154	      0.72345806	     -5.87022137	     33.77584124	     -1.22717222	      0.58949964	     17.01221193	    -14.78578054	     -7.77768546	      0.27185947	      4.90378677	    -10.46829413	     30.82563418	     -9.88315346	      0.53800881	     30.31267156	      5.83168810	     -7.77768546	    -40.44984198	      5.21959883	     -5.83172215	     11.16468808	     -5.29011311	     -5.66723046	     31.45666144	     90.00000001	      0.00000000	      0.00000000	     23.69698312	    -12.87054875	     -4.62440447	     38.39472508	     90.00000001	      0.00000000	      0.00000000
      1.03000000	      9.56720920	     -0.44014140	      9.53560527	     -0.53453226	      0.87126667	      0.16075520	     15.39854140	      0.94457963	     -5.91015699	     29.88824776	     -1.28050750	      0.52164833	     16.32280772	    -14.78753175	     -7.76350169	     -0.48316916	      4.54235018	    -11.12876890	     30.66754912	     -9.94436602	      0.53524971	     31.02696607	      7.02985286	     -7.76350169	    -40.56281077	      5.27546356	     -5.69844743	     10.78241105	     -5.15664436	     -6.60098058	     31.21130584	     90.00000001	      0.00000000	      0.00000000	     24.00883832	    -13.07407509	     -4.13814787	     39.23890379	     90.00000001	      0.00000000	      0.00000000
